<svg width="94" height="94" viewBox="0 0 94 94" fill="none" xmlns="http://www.w3.org/2000/svg">
<rect x="1" y="1" width="92" height="92" rx="46" stroke="#262626" stroke-width="2" stroke-dasharray="16 6"/>
<path d="M79 47L94 47" stroke="#262626" stroke-width="3"/>
<path d="M0 47L15 47" stroke="#262626" stroke-width="3"/>
<path d="M47 15V1.19209e-07" stroke="#262626" stroke-width="3"/>
<path d="M47 94V79" stroke="#262626" stroke-width="3"/>
<rect x="14" y="14" width="66" height="66" rx="33" fill="#1A1A1A"/>
<path d="M55.5 41.3333C55.5 46.0277 51.6944 49.8333 47 49.8333C42.3056 49.8333 38.5 46.0277 38.5 41.3333C38.5 36.6388 42.3056 32.8333 47 32.8333C51.6944 32.8333 55.5 36.6388 55.5 41.3333Z" fill="#C2B4A3"/>
<path d="M37.1308 45.2766C34.564 46.7394 32.8333 49.501 32.8333 52.6667C32.8333 57.3611 36.6389 61.1667 41.3333 61.1667C46.0277 61.1667 49.8333 57.3611 49.8333 52.6667C49.8333 52.3036 49.8105 51.9458 49.7664 51.5947C48.8843 51.8319 47.9569 51.9584 47 51.9584C42.5253 51.9584 38.6966 49.1922 37.1308 45.2766Z" fill="#C2B4A3"/>
<path d="M51.7977 50.816C51.9032 51.417 51.9583 52.0354 51.9583 52.6667C51.9583 55.6284 50.7464 58.3071 48.7916 60.234C49.9536 60.8302 51.2708 61.1667 52.6666 61.1667C57.361 61.1667 61.1666 57.3611 61.1666 52.6667C61.1666 49.501 59.436 46.7394 56.8692 45.2766C55.9074 47.6816 54.0921 49.6529 51.7977 50.816Z" fill="#C2B4A3"/>
</svg>
