<svg width="94" height="94" viewBox="0 0 94 94" fill="none" xmlns="http://www.w3.org/2000/svg">
<rect x="1" y="1" width="92" height="92" rx="46" stroke="#262626" stroke-width="2" stroke-dasharray="16 6"/>
<path d="M79 47L94 47" stroke="#262626" stroke-width="3"/>
<path d="M0 47L15 47" stroke="#262626" stroke-width="3"/>
<path d="M47 15V1.19209e-07" stroke="#262626" stroke-width="3"/>
<path d="M47 94V79" stroke="#262626" stroke-width="3"/>
<rect x="14" y="14" width="66" height="66" rx="33" fill="#1A1A1A"/>
<path d="M35.4464 35.4463C33.8512 37.0415 33.8512 39.6279 35.4464 41.2231L37.6957 43.4724C37.7126 43.4529 37.7303 43.4338 37.7489 43.4153L43.4155 37.7486C43.434 37.7301 43.453 37.7125 43.4725 37.6956L41.2232 35.4463C39.628 33.8511 37.0416 33.8511 35.4464 35.4463Z" fill="#C2B4A3"/>
<path d="M44.9711 39.1943C44.9543 39.2137 44.9366 39.2327 44.9181 39.2512L39.2515 44.9179C39.2329 44.9364 39.2139 44.9541 39.1943 44.971L52.7768 58.5535C54.372 60.1487 56.9584 60.1487 58.5536 58.5535C60.1488 56.9583 60.1488 54.3719 58.5536 52.7767L44.9711 39.1943Z" fill="#C2B4A3"/>
<path d="M52.8084 33.2684C53.0364 32.6882 53.8546 32.6882 54.0826 33.2684L54.6923 34.8201C54.7619 34.9972 54.9016 35.1375 55.0781 35.2073L56.624 35.8193C57.2021 36.0481 57.2021 36.8693 56.624 37.0982L55.0781 37.7102C54.9016 37.78 54.7619 37.9202 54.6923 38.0974L54.0826 39.6491C53.8546 40.2293 53.0364 40.2293 52.8084 39.6491L52.1987 38.0974C52.1291 37.9202 51.9893 37.78 51.8129 37.7102L50.2669 37.0982C49.6888 36.8693 49.6888 36.0481 50.2669 35.8193L51.8129 35.2073C51.9893 35.1375 52.1291 34.9972 52.1987 34.8201L52.8084 33.2684Z" fill="#C2B4A3"/>
<path d="M58.2868 42.9333C58.5148 42.3531 59.333 42.3531 59.561 42.9333L59.7833 43.4991C59.8529 43.6762 59.9926 43.8164 60.1691 43.8863L60.7328 44.1094C61.3109 44.3383 61.3109 45.1595 60.7328 45.3883L60.1691 45.6114C59.9926 45.6813 59.8529 45.8215 59.7833 45.9987L59.561 46.5644C59.333 47.1447 58.5148 47.1447 58.2868 46.5644L58.0645 45.9987C57.9949 45.8215 57.8552 45.6813 57.6787 45.6114L57.1151 45.3883C56.537 45.1595 56.537 44.3383 57.1151 44.1094L57.6787 43.8863C57.8552 43.8164 57.9949 43.6762 58.0645 43.4991L58.2868 42.9333Z" fill="#C2B4A3"/>
<path d="M37.272 51.6851C37.5 51.1049 38.3182 51.1049 38.5462 51.6851L38.7685 52.2508C38.8381 52.428 38.9778 52.5682 39.1543 52.6381L39.718 52.8612C40.2961 53.0901 40.2961 53.9113 39.718 54.1401L39.1543 54.3632C38.9778 54.4331 38.8381 54.5733 38.7685 54.7505L38.5462 55.3162C38.3182 55.8965 37.5 55.8965 37.272 55.3162L37.0497 54.7505C36.9801 54.5733 36.8404 54.4331 36.6639 54.3632L36.1002 54.1401C35.5221 53.9113 35.5221 53.0901 36.1002 52.8612L36.6639 52.6381C36.8404 52.5682 36.9801 52.428 37.0497 52.2508L37.272 51.6851Z" fill="#C2B4A3"/>
</svg>
