<svg width="94" height="94" viewBox="0 0 94 94" fill="none" xmlns="http://www.w3.org/2000/svg">
<rect x="1" y="1" width="92" height="92" rx="46" stroke="#262626" stroke-width="2" stroke-dasharray="16 6"/>
<path d="M79 47L94 47" stroke="#262626" stroke-width="3"/>
<path d="M0 47L15 47" stroke="#262626" stroke-width="3"/>
<path d="M47 15V1.19209e-07" stroke="#262626" stroke-width="3"/>
<path d="M47 94V79" stroke="#262626" stroke-width="3"/>
<rect x="14" y="14" width="66" height="66" rx="33" fill="#1A1A1A"/>
<path d="M42.967 37.6618C44.7614 34.4428 45.6586 32.8333 47 32.8333C48.3414 32.8333 49.2386 34.4428 51.033 37.6618L51.4973 38.4946C52.0072 39.4093 52.2621 39.8667 52.6597 40.1685C53.0572 40.4703 53.5523 40.5823 54.5425 40.8063L55.444 41.0103C58.9285 41.7987 60.6708 42.1929 61.0853 43.5259C61.4998 44.8588 60.3121 46.2478 57.9365 49.0256L57.322 49.7443C56.6469 50.5337 56.3094 50.9284 56.1575 51.4167C56.0057 51.905 56.0567 52.4316 56.1588 53.4848L56.2517 54.4436C56.6108 58.1499 56.7904 60.0031 55.7052 60.8269C54.62 61.6507 52.9887 60.8996 49.7261 59.3974L48.8821 59.0088C47.955 58.5819 47.4914 58.3685 47 58.3685C46.5086 58.3685 46.0451 58.5819 45.118 59.0088L44.2739 59.3974C41.0113 60.8996 39.38 61.6507 38.2948 60.8269C37.2096 60.0031 37.3892 58.1499 37.7483 54.4437L37.8412 53.4848C37.9433 52.4316 37.9943 51.905 37.8425 51.4167C37.6906 50.9284 37.3531 50.5337 36.6781 49.7443L36.0635 49.0256C33.6879 46.2478 32.5002 44.8588 32.9147 43.5259C33.3292 42.1929 35.0715 41.7987 38.556 41.0103L39.4575 40.8063C40.4477 40.5823 40.9428 40.4703 41.3403 40.1685C41.7379 39.8667 41.9928 39.4093 42.5028 38.4946L42.967 37.6618Z" fill="#C2B4A3"/>
</svg>
